<?xml version="1.0" encoding="utf-8"?>
<!-- Generator: Adobe Illustrator 22.1.0, SVG Export Plug-In . SVG Version: 6.00 Build 0)  -->
<svg version="1.1" xmlns="http://www.w3.org/2000/svg" xmlns:xlink="http://www.w3.org/1999/xlink" x="0px" y="0px"
	 viewBox="0 0 364.3 273.2" style="enable-background:new 0 0 364.3 273.2;" xml:space="preserve">
<style type="text/css">
	.st0{fill:#488F71;}
	.st1{fill:#4E448D;}
</style>
<g id="Hello">
	<path id="O" class="st0" d="M302.1,145c0-7,1.9-13.9,5.6-20.8c3.7-6.9,8.6-12.5,14.5-16.9c5.9-4.3,12-6.5,18.2-6.5
		c6.5,0,11.7,2.1,15.7,6.4c4,4.3,6,9.8,6,16.6c0,7.4-1.8,14.6-5.5,21.5c-3.7,7-8.5,12.6-14.5,17.1c-6,4.4-12,6.7-18.1,6.7
		c-6.6,0-11.9-2.2-15.9-6.7C304.1,158.1,302.1,152.2,302.1,145z M351.7,119.5c0-4.6-1.1-8.5-3.4-11.5c-2.3-3-5.2-4.5-8.7-4.5
		c-3.2,0-6.4,1-9.3,3.1c-3,2.1-5.7,5.1-8.2,9.2c-2.8,4.6-5.1,10-6.9,16.2c-1.8,6.2-2.7,11.7-2.7,16.5c0,5.7,1.1,10.1,3.4,13.2
		c2.2,3.1,5.4,4.6,9.6,4.6c6.7,0,12.6-4.7,17.7-14c2.6-4.8,4.7-10.2,6.3-16.1C350.9,130.2,351.7,124.6,351.7,119.5z"/>
	<path id="L-2nd" class="st0" d="M311.4,4l-30.5,133.6l-1,4.5c-1,4.2-1.5,7.8-1.5,10.8c0,2.4,0.4,4.3,1.3,5.9c0.9,1.5,2,2.3,3.3,2.3
		c2.4,0,6.2-2.9,11.5-8.6l1.9,1.6l-1.2,1.3c-4.4,5.2-7.6,8.7-9.7,10.5c-2.1,1.8-4,2.7-5.8,2.7c-2.3,0-4.3-1.3-6.1-3.9
		c-1.7-2.6-2.6-5.5-2.6-8.9c0-2.3,0.5-6,1.5-11L299.2,9.9L311.4,4z"/>
	<path id="L-1st" class="st0" d="M277.2,4l-30.5,133.6l-1,4.5c-1,4.2-1.5,7.8-1.5,10.8c0,2.4,0.4,4.3,1.3,5.9c0.9,1.5,2,2.3,3.3,2.3
		c2.4,0,6.2-2.9,11.5-8.6l1.9,1.6l-1.2,1.3c-4.4,5.2-7.6,8.7-9.7,10.5c-2.1,1.8-4,2.7-5.8,2.7c-2.3,0-4.3-1.3-6.1-3.9
		c-1.7-2.6-2.6-5.5-2.6-8.9c0-2.3,0.5-6,1.5-11L265,9.9L277.2,4z"/>
	<path id="E" class="st0" d="M223.7,149.2l2.1,1.7c-4.8,6.3-9.5,10.9-14,13.7c-4.6,2.8-9.5,4.2-14.7,4.2c-6.3,0-11.3-2.1-15.1-6.3
		s-5.7-9.7-5.7-16.6c0-7,1.8-14,5.5-21.1c3.7-7.1,8.3-13.1,13.8-17.7c5.5-4.7,11-7,16.4-7c3.2,0,5.8,0.9,7.8,2.8
		c2,1.9,3.1,4.2,3.1,7.2c0,5.9-3.2,11.9-9.7,17.8c-6.5,5.9-15.3,11-26.5,15.2c-0.1,0.6-0.1,1.3-0.1,2.1c0,5.3,1.5,9.7,4.4,13
		c2.9,3.4,6.7,5,11.4,5c3.6,0,7.1-1.1,10.5-3.4C216.2,157.7,219.8,154.1,223.7,149.2z M186.6,140.4c8.3-3.7,14.8-7.8,19.2-12.4
		c3-3.1,5.4-6.4,7.3-10c1.9-3.6,2.8-6.8,2.8-9.6c0-3.6-1.7-5.4-5-5.4c-5,0-10.1,4-15.2,11.9C190.6,122.8,187.5,131.3,186.6,140.4z"
		/>
	<path id="H" class="st0" d="M101.6,111.9h48.7L170,17.2l12.2-6l-32.9,156.1h-7.2c-1.8-5.3-4.1-10.5-7-15.6
		c-2.9-5.1-6.3-10.1-10.3-14.9c-3.9-4.8-8-9.1-12.2-12.8c-4.2-3.7-8.4-6.6-12.6-8.6l-0.3,0.6c-4.4,10.1-9.8,19.1-16,27.1
		c-6.3,7.9-12.8,13.9-19.4,18c-3.9,2.4-8.3,4.5-13.3,6.3c-5,1.8-10.2,3.1-15.6,4.1s-10.9,1.4-16.5,1.4c-3.8,0-7.9-0.4-12.3-1.2
		l3.7-9.2c8.9,2.9,16.7,4.3,23.5,4.3c8.5,0,16.6-2.2,24.3-6.6c7.7-4.4,14.1-10.4,19.1-18c7-10.6,13.5-25,19.3-43.2
		c1-3,2.5-8.1,4.5-15.3c2-7.2,3.8-14.1,5.5-20.7c1.7-6.6,3-12.2,3.9-16.6l4.1-20.6l0.3-2.2l13.1-6.5c-0.8,6.2-2.1,13.5-4.1,21.9
		c-1.9,8.4-4.2,17.1-6.7,26.1c-2.5,9-5.2,17.7-7.9,26.2c-2.8,8.5-5.3,15.3-7.5,20.2L101.6,111.9z M149.3,115.9h-39.6
		c5.4,4.2,11.2,9.7,17.5,16.5c6.3,6.8,11.2,13.1,14.8,18.9L149.3,115.9z"/>
</g>
<g id="World">
	<path id="D" class="st1" d="M258.6,268.7l5.2-5.2V126.9l-5.2-5.2h36.8c2.8,0,5.3,1,7.4,3.1c2.1,2.1,3.1,4.5,3.1,7.4v126
		c0,3-1,5.5-3.1,7.5c-2.1,2-4.5,3-7.4,3H258.6z M290.1,263.4c1.4,0,2.6-0.5,3.6-1.5c1.1-1,1.6-2.2,1.6-3.8v-126
		c0-1.4-0.5-2.6-1.6-3.6c-1-1.1-2.2-1.6-3.6-1.6h-15.8v136.5H290.1z"/>
	<path id="L" class="st1" d="M209.4,268.7l5.2-5.2V126.9l-5.2-5.2h21l-5.2,5.2v136.5h21l5.2-5.2v10.5H209.4z"/>
	<path id="R" class="st1" d="M149.7,268.7l5.2-5.2V126.9l-5.2-5.2h36.8c2.8,0,5.3,1,7.4,3.1c2.1,2.1,3.1,4.5,3.1,7.4v73.5
		c0,3-1,5.5-3.1,7.5c-0.2,0.1-0.4,0.2-0.5,0.3c0.1,0.2,0.3,0.4,0.5,0.5c2.1,2.1,3.1,4.5,3.1,7.4v42l5.2,5.2h-15.8v-47.2
		c0-1.4-0.5-2.6-1.6-3.6c-1-1.1-2.2-1.6-3.6-1.6h-10.5c-1.5,0-2.8,0.5-3.8,1.6c-1,1-1.5,2.2-1.5,3.6v47.2H149.7z M170.7,210.9h10.5
		c1.4,0,2.6-0.5,3.6-1.5c1.1-1,1.6-2.2,1.6-3.8v-73.5c0-1.4-0.5-2.6-1.6-3.6c-1-1.1-2.2-1.6-3.6-1.6h-15.8v85.5
		C166.9,211.4,168.7,210.9,170.7,210.9z"/>
	<path id="O_1_" class="st1" d="M110.9,268.7c-3,0-5.5-1-7.5-3c-2-2.1-3-4.6-3-7.5v-126c0-2.8,1-5.3,3-7.4c2.1-2.1,4.6-3.1,7.5-3.1
		h21c2.8,0,5.3,1,7.4,3.1c2.1,2.1,3.1,4.5,3.1,7.4v126c0,3-1,5.5-3.1,7.5c-2.1,2-4.5,3-7.4,3H110.9z M110.8,267.4h0.2H110.8z
		 M126.7,263.4c1.4,0,2.6-0.5,3.6-1.5c1.1-1,1.6-2.2,1.6-3.8v-126c0-1.4-0.5-2.6-1.6-3.6c-1-1.1-2.2-1.6-3.6-1.6h-10.5
		c-1.5,0-2.8,0.5-3.8,1.6c-1,1-1.5,2.2-1.5,3.6v126c0,1.5,0.5,2.8,1.5,3.8s2.2,1.5,3.8,1.5H126.7z"/>
	<path id="W" class="st1" d="M30.2,268.7c-3,0-5.5-1-7.5-3c-2-2.1-3-4.6-3-7.5V126.9l-5.2-5.2h15.8v126c0,1.5,0.5,2.8,1.5,3.8
		c1,1,2.2,1.5,3.8,1.5h5.2c1.4,0,2.6-0.5,3.6-1.5c1.1-1,1.6-2.2,1.6-3.8v-126h15.8l-5.2,5.2v120.8c0,3-1,5.5-3.1,7.5
		c-2.1,2-4.5,3-7.4,3H35.5c-2,0-3.7-0.4-5.3-1.3v1.3c0,1.5,0.5,2.8,1.5,3.8c1,1,2.2,1.5,3.8,1.5H67c1.4,0,2.6-0.5,3.6-1.5
		c1.1-1,1.6-2.2,1.6-3.8V121.7H88l-5.2,5.2v131.2c0,3-1,5.5-3.1,7.5c-2.1,2-4.5,3-7.4,3H30.2z"/>
</g>
</svg>
