
<svg id="sparrowSvg" version="1.0" xmlns="http://www.w3.org/2000/svg" width="773.000000pt" height="1280.000000pt" viewBox="0 0 773.000000 1280.000000" preserveAspectRatio="xMidYMid meet">
  <g id="sparrowG" transform="translate(0.000000,1280.000000) scale(0.100000,-0.100000)" fill="#000000" stroke="none">
  <path d="M4636 12789 c-72 -12 -145 -37 -192 -67 -39 -24 -42 -29 -48 -82 -7 -56 4 -108 26 -121 7 -4 6 -24 -2 -62 -12 -51 -11 -57 9 -85 11 -17 21 -35 21 -41 0 -6 13 -11 28 -11 44 0 57 -18 91 -124 l31 -98 -88 -97 c-96 -104 -107 -122 -92 -152 19 -34 70 -52 166 -57 l90 -5 -3 -56 c-7 -114 -14 -140 -53 -200 -79 -123 -81 -143 -12 -182 l39 -23 -9 -48 c-6 -34 -5 -54 4 -70 6 -13 14 -52 15 -88 4 -67 4 -81 4 -190 -1 -90 16 -106 151 -139 l103 -26 3 -65 c2 -52 1 -63 -9 -52 -8 7 -43 12 -94 12 -66 0 -97 6 -166 31 -71 26 -601 139 -649 139 -8 -1 -27 -21 -42 -45 l-27 -44 -83 7 c-102 9 -266 8 -333 -3 l-50 -7 -66 70 c-82 88 -135 108 -257 97 -53 -4 -102 -1 -157 9 -94 19 -205 54 -205 66 0 4 -32 29 -72 55 -148 98 -286 162 -412 189 -391 87 -611 126 -746 131 -108 4 -171 13 -425 56 -205 36 -374 45 -545 31 -75 -6 -184 -6 -314 1 -219 12 -241 8 -260 -46 -19 -54 63 -107 204 -132 47 -8 113 -15 148 -15 l62 0 -7 -27 c-16 -60 -8 -196 15 -263 33 -96 43 -105 148 -129 128 -29 180 -27 320 14 150 45 304 80 415 95 l86 12 36 47 c20 26 47 71 61 101 14 30 26 48 26 40 0 -25 -48 -119 -79 -157 l-30 -36 69 -53 c37 -29 90 -82 118 -116 46 -58 72 -77 144 -106 18 -7 28 -19 28 -32 0 -25 99 -134 160 -176 25 -18 80 -68 123 -113 80 -83 118 -109 199 -131 40 -10 52 -20 79 -62 36 -55 77 -81 113 -72 16 4 36 -1 55 -12 29 -17 31 -22 31 -81 0 -35 6 -79 14 -98 25 -58 56 -71 290 -121 68 -14 145 -38 177 -55 107 -53 285 -88 455 -89 101 0 114 -27 125 -259 15 -307 36 -524 79 -806 11 -71 24 -206 28 -300 6 -123 13 -178 25 -201 8 -16 21 -77 27 -135 21 -194 39 -239 96 -239 31 0 43 -8 88 -56 l53 -57 -13 -76 c-10 -53 -19 -79 -31 -86 -46 -26 -160 -154 -223 -252 -122 -187 -208 -383 -245 -561 -24 -115 -20 -143 31 -256 l47 -101 -21 -105 c-50 -242 -51 -365 -7 -675 14 -93 29 -217 35 -275 5 -58 18 -190 29 -295 30 -286 32 -355 35 -930 3 -531 17 -844 51 -1165 61 -575 132 -1134 161 -1260 20 -87 21 -355 2 -605 -13 -181 -6 -312 19 -363 16 -33 24 -38 88 -54 219 -56 421 -63 655 -23 79 13 146 23 147 21 2 -2 -50 -17 -114 -34 -109 -28 -134 -31 -336 -36 -179 -5 -227 -4 -265 9 -26 8 -81 25 -122 38 l-75 24 -5 47 c-3 25 -7 48 -10 49 -3 1 -88 -47 -189 -108 -206 -123 -283 -185 -287 -231 -1 -16 -11 -57 -23 -91 -27 -81 -26 -105 4 -142 35 -41 73 -45 300 -27 258 19 564 85 687 147 120 61 176 79 207 68 18 -7 63 -3 163 17 l137 26 7 33 c3 18 9 75 12 126 l7 94 38 3 c35 3 37 5 38 40 0 20 4 145 8 277 8 236 8 242 -20 395 -70 391 -88 671 -60 935 12 114 11 135 -18 400 -27 247 -31 309 -29 520 3 230 2 242 -20 297 -13 31 -34 72 -47 92 l-24 35 44 80 c43 77 45 84 56 209 6 71 9 156 6 188 -2 33 2 221 11 419 l15 360 95 235 c52 129 97 238 101 243 10 10 48 -196 67 -368 l16 -140 62 -78 62 -77 22 -121 c13 -67 43 -194 68 -281 44 -155 49 -165 139 -308 l93 -149 17 -143 c29 -263 54 -397 174 -938 72 -326 237 -964 376 -1455 48 -166 53 -195 45 -230 -5 -22 -10 -73 -10 -113 0 -68 2 -76 29 -103 37 -36 68 -37 139 -4 31 14 153 46 285 74 l232 49 222 -16 c123 -9 225 -14 227 -11 2 2 -2 37 -10 78 -8 40 -28 164 -45 275 -17 110 -39 244 -51 296 -34 159 -94 266 -162 291 -33 12 -33 13 -40 91 -4 47 -2 95 4 119 25 91 40 210 40 309 -1 102 -5 129 -48 310 -55 231 -58 256 -47 381 9 92 -3 138 -80 313 -30 67 -55 129 -55 137 0 8 14 41 30 73 50 98 35 176 -59 324 -50 78 -52 82 -41 119 48 163 52 269 16 425 -14 57 -57 339 -97 628 l-72 525 -43 103 -44 104 0 296 0 295 -56 146 c-36 96 -64 154 -81 169 l-26 23 37 31 c90 74 85 145 -15 221 -27 20 -40 40 -48 72 -15 61 -15 63 21 85 30 18 34 27 50 112 10 51 23 158 28 238 12 161 27 262 41 271 5 3 2 25 -8 53 -17 46 -17 47 11 129 27 79 28 88 24 249 -2 92 0 164 3 160 3 -4 13 -88 22 -187 17 -192 46 -350 102 -561 19 -73 35 -149 35 -170 0 -22 13 -100 30 -174 18 -80 30 -165 30 -210 1 -110 16 -259 31 -309 8 -26 29 -59 50 -80 l37 -36 -9 -225 c-6 -124 -11 -236 -12 -250 -2 -23 2 -25 71 -36 85 -13 104 -24 40 -24 -39 0 -50 -5 -73 -31 -64 -77 -98 -184 -111 -346 -7 -104 3 -144 41 -161 16 -8 25 -22 30 -52 4 -23 5 -43 2 -46 -2 -3 -28 -7 -56 -11 -55 -6 -81 -28 -81 -69 0 -46 49 -64 187 -65 92 -1 125 12 170 64 15 19 41 37 58 41 92 23 218 256 245 456 7 52 14 127 15 165 1 39 8 140 14 225 7 85 14 193 17 238 l6 84 61 -9 c34 -4 91 -8 126 -8 l63 0 45 130 c25 72 47 140 50 152 5 23 -71 261 -219 683 -109 311 -181 490 -220 552 -30 47 -30 48 -18 116 18 99 9 196 -40 454 -40 206 -42 230 -29 254 19 36 15 130 -10 224 -10 41 -69 205 -130 363 -61 159 -111 292 -111 296 0 4 23 36 50 70 28 34 50 69 50 76 0 24 -465 387 -645 504 -44 29 -84 59 -88 67 -13 24 -37 16 -48 -16 -6 -16 -12 -30 -14 -30 -4 0 -380 212 -388 219 -4 4 -21 54 -37 112 -32 112 -38 201 -21 346 7 56 14 77 30 90 29 24 87 180 122 332 16 68 36 129 43 135 8 6 26 78 43 171 l29 160 100 5 c110 7 169 30 208 83 46 62 14 179 -81 292 -80 97 -135 128 -333 191 -633 200 -1104 290 -1324 253z m-3109 -1621 c-3 -8 -6 -5 -6 6 -1 11 2 17 5 13 3 -3 4 -12 1 -19z"/>
  <path d="M6594 791 c-226 -48 -266 -61 -282 -92 -8 -16 -11 -60 -9 -139 l4 -115 193 -97 c144 -73 203 -98 232 -98 26 0 38 4 38 14 0 29 17 24 110 -31 135 -80 250 -131 344 -153 108 -26 273 -50 339 -50 124 0 200 118 150 231 -22 50 -124 175 -283 347 -58 63 -117 133 -132 156 l-28 43 -87 6 c-49 4 -160 9 -248 12 -157 5 -164 4 -341 -34z"/>
  </g>
</svg>